<?xml version="1.0" encoding="UTF-8" standalone="no"?><svg xmlns="http://www.w3.org/2000/svg" xmlns:xlink="http://www.w3.org/1999/xlink" contentStyleType="text/css" height="705px" preserveAspectRatio="none" style="width:501px;height:705px;background:#FFFFFF;" version="1.1" viewBox="0 0 501 705" width="501px" zoomAndPan="magnify"><defs/><g><ellipse cx="262.5" cy="16" fill="#222222" rx="10" ry="10" style="stroke:none;stroke-width:1.0;"/><rect fill="#F1F1F1" height="36.3441" rx="12.5" ry="12.5" style="stroke:#181818;stroke-width:0.5;" width="165" x="180" y="67"/><text fill="#000000" font-family="sans-serif" font-size="12" lengthAdjust="spacing" textLength="145" x="190" y="89.8281">Log in to Provider Website</text><g id="elem_#5"><polygon fill="#F1F1F1" points="262.5,144,274.5,156,262.5,168,250.5,156,262.5,144" style="stroke:#181818;stroke-width:0.5;"/></g><rect fill="#F1F1F1" height="36.3441" rx="12.5" ry="12.5" style="stroke:#181818;stroke-width:0.5;" width="181" x="7" y="280"/><text fill="#000000" font-family="sans-serif" font-size="12" lengthAdjust="spacing" textLength="161" x="17" y="302.8281">Download transactions (CSV)</text><rect fill="#F1F1F1" height="36.3441" rx="12.5" ry="12.5" style="stroke:#181818;stroke-width:0.5;" width="98" x="213.5" y="448"/><text fill="#000000" font-family="sans-serif" font-size="12" lengthAdjust="spacing" textLength="78" x="223.5" y="470.8281">Condition CSV</text><rect fill="#F1F1F1" height="36.3441" rx="12.5" ry="12.5" style="stroke:#181818;stroke-width:0.5;" width="293" x="116" y="525"/><text fill="#000000" font-family="sans-serif" font-size="12" lengthAdjust="spacing" textLength="273" x="126" y="547.8281">python3 bankstatement.py -f csv transactions.csv</text><rect fill="#F1F1F1" height="36.3441" rx="12.5" ry="12.5" style="stroke:#181818;stroke-width:0.5;" width="175" x="175" y="224"/><text fill="#000000" font-family="sans-serif" font-size="12" lengthAdjust="spacing" textLength="155" x="185" y="246.8281">Download statements (PDF)</text><rect fill="#F1F1F1" height="36.3441" rx="12.5" ry="12.5" style="stroke:#181818;stroke-width:0.5;" width="299" x="113" y="336"/><text fill="#000000" font-family="sans-serif" font-size="12" lengthAdjust="spacing" textLength="279" x="123" y="358.8281">python3 bankstatement.py -f fecccu statement.pdf</text><rect fill="#F1F1F1" height="36.3441" rx="12.5" ry="12.5" style="stroke:#181818;stroke-width:0.5;" width="158" x="321.5" y="392"/><text fill="#000000" font-family="sans-serif" font-size="12" lengthAdjust="spacing" textLength="138" x="331.5" y="414.8281">Manually write CSV table</text><rect fill="#F1F1F1" height="36.3441" rx="12.5" ry="12.5" style="stroke:#181818;stroke-width:0.5;" width="208" x="158.5" y="602"/><text fill="#000000" font-family="sans-serif" font-size="12" lengthAdjust="spacing" textLength="188" x="168.5" y="624.8281">budget-import -i transactions.json</text><ellipse cx="262.5" cy="689" fill="none" rx="10" ry="10" style="stroke:#222222;stroke-width:1.0;"/><ellipse cx="263" cy="689.5" fill="#222222" rx="6" ry="6" style="stroke:none;stroke-width:1.0;"/><!--MD5=[049e1cbe1026312639f9a595caed1b5f]
link start to Log in to Provider Website--><g id="link_start_Log in to Provider Website"><path d="M262.5,26.04 C262.5,35.16 262.5,49.61 262.5,61.8 " fill="none" id="start-to-Log in to Provider Website" style="stroke:#181818;stroke-width:1.0;"/><polygon fill="#181818" points="262.5,66.87,266.5,57.87,262.5,61.87,258.5,57.87,262.5,66.87" style="stroke:#181818;stroke-width:1.0;"/></g><!--MD5=[0475d588d0f3322051d7aa8a6f011fc3]
link Log in to Provider Website to #5--><g id="link_Log in to Provider Website_#5"><path d="M262.5,103.06 C262.5,113.93 262.5,127.94 262.5,138.67 " fill="none" id="Log in to Provider Website-to-#5" style="stroke:#181818;stroke-width:1.0;"/><polygon fill="#181818" points="262.5,143.95,266.5,134.95,262.5,138.95,258.5,134.95,262.5,143.95" style="stroke:#181818;stroke-width:1.0;"/><text fill="#000000" font-family="sans-serif" font-size="11" lengthAdjust="spacing" textLength="90" x="152.8125" y="133.5893">Statement Origin</text></g><!--MD5=[f0e892c99e7a6dc6b2d465d965ac9d4e]
link #5 to Download transactions (CSV)--><g id="link_#5_Download transactions (CSV)"><path d="M255.46,161.05 C238.79,170.78 195.96,196.74 164.5,224 C146.2,239.86 127.77,260.35 114.88,275.58 " fill="none" id="#5-to-Download transactions (CSV)" style="stroke:#181818;stroke-width:1.0;"/><polygon fill="#181818" points="111.4,279.73,120.2504,275.4091,114.615,275.9006,114.1234,270.2652,111.4,279.73" style="stroke:#181818;stroke-width:1.0;"/><text fill="#000000" font-family="sans-serif" font-size="11" lengthAdjust="spacing" textLength="36" x="212.5" y="200.7589">Nicolet</text></g><!--MD5=[ec7e5f20dbcac65476207e8fe036070c]
link Download transactions (CSV) to Condition CSV--><g id="link_Download transactions (CSV)_Condition CSV"><path d="M94.4,316.01 C92.47,331.74 92.04,355.17 102.5,372 C126.29,410.25 172.01,434.5 208.51,448.61 " fill="none" id="Download transactions (CSV)-to-Condition CSV" style="stroke:#181818;stroke-width:1.0;"/><polygon fill="#181818" points="213.37,450.45,206.366,443.5258,208.6931,448.6819,203.537,451.009,213.37,450.45" style="stroke:#181818;stroke-width:1.0;"/></g><!--MD5=[8acc8e3b7950fdac0012287f0f6815b2]
link Condition CSV to python3 bankstatement.py -f csv transactions.csv--><g id="link_Condition CSV_python3 bankstatement.py -f csv transactions.csv"><path d="M256.1,484.02 C254.83,494.59 254.66,508.29 255.58,519.72 " fill="none" id="Condition CSV-to-python3 bankstatement.py -f csv transactions.csv" style="stroke:#181818;stroke-width:1.0;"/><polygon fill="#181818" points="256.08,524.79,259.1859,515.4437,255.5938,519.8137,251.2238,516.2216,256.08,524.79" style="stroke:#181818;stroke-width:1.0;"/></g><!--MD5=[8acc8e3b7950fdac0012287f0f6815b2]
link Condition CSV to python3 bankstatement.py -f csv transactions.csv--><g id="link_Condition CSV_python3 bankstatement.py -f csv transactions.csv"><path d="M268.9,484.02 C270.17,494.59 270.34,508.29 269.42,519.72 " fill="none" id="Condition CSV-to-python3 bankstatement.py -f csv transactions.csv-1" style="stroke:#181818;stroke-width:1.0;"/><polygon fill="#181818" points="268.92,524.79,273.7762,516.2216,269.4062,519.8137,265.8141,515.4437,268.92,524.79" style="stroke:#181818;stroke-width:1.0;"/></g><!--MD5=[66ffe704cc5269609b2b922a21a91680]
link #5 to Download statements (PDF)--><g id="link_#5_Download statements (PDF)"><path d="M262.5,168.33 C262.5,181.12 262.5,202.27 262.5,218.46 " fill="none" id="#5-to-Download statements (PDF)" style="stroke:#181818;stroke-width:1.0;"/><polygon fill="#181818" points="262.5,223.74,266.5,214.74,262.5,218.74,258.5,214.74,262.5,223.74" style="stroke:#181818;stroke-width:1.0;"/><text fill="#000000" font-family="sans-serif" font-size="11" lengthAdjust="spacing" textLength="41" x="263.5" y="200.7589">FECCCU</text></g><!--MD5=[325b19e99c1545b4b2447e33fab7ce8c]
link Download statements (PDF) to python3 bankstatement.py -f fecccu statement.pdf--><g id="link_Download statements (PDF)_python3 bankstatement.py -f fecccu statement.pdf"><path d="M262.5,260.19 C262.5,279.24 262.5,310.02 262.5,330.86 " fill="none" id="Download statements (PDF)-to-python3 bankstatement.py -f fecccu statement.pdf" style="stroke:#181818;stroke-width:1.0;"/><polygon fill="#181818" points="262.5,335.93,266.5,326.93,262.5,330.93,258.5,326.93,262.5,335.93" style="stroke:#181818;stroke-width:1.0;"/></g><!--MD5=[916032f8932ecd25d9ecf8af91d10cd4]
link python3 bankstatement.py -f fecccu statement.pdf to Condition CSV--><g id="link_python3 bankstatement.py -f fecccu statement.pdf_Condition CSV"><path d="M262.5,372.19 C262.5,391.24 262.5,422.02 262.5,442.86 " fill="none" id="python3 bankstatement.py -f fecccu statement.pdf-to-Condition CSV" style="stroke:#181818;stroke-width:1.0;"/><polygon fill="#181818" points="262.5,447.93,266.5,438.93,262.5,442.93,258.5,438.93,262.5,447.93" style="stroke:#181818;stroke-width:1.0;"/></g><!--MD5=[71a30ffaaa7054071fb222880b642e22]
link #5 to Manually write CSV table--><g id="link_#5_Manually write CSV table"><path d="M270.05,160.53 C287.82,169.15 332.86,192.87 360.5,224 C398.28,266.54 408.27,280.91 422.5,336 C426.5,351.49 426.74,356.57 422.5,372 C421.04,377.3 418.61,382.6 415.88,387.47 " fill="none" id="#5-to-Manually write CSV table" style="stroke:#181818;stroke-width:1.0;"/><polygon fill="#181818" points="413.31,391.81,421.3342,386.0993,415.8551,387.5062,414.4481,382.0271,413.31,391.81" style="stroke:#181818;stroke-width:1.0;"/><text fill="#000000" font-family="sans-serif" font-size="11" lengthAdjust="spacing" textLength="103" x="390.5" y="246.7589">Discover, Sallie Mae</text></g><!--MD5=[746f45c945b171ce897f8107e3ee8b88]
link Manually write CSV table to python3 bankstatement.py -f csv transactions.csv--><g id="link_Manually write CSV table_python3 bankstatement.py -f csv transactions.csv"><path d="M382.46,428.13 C357.25,452.06 311.54,495.45 284.41,521.2 " fill="none" id="Manually write CSV table-to-python3 bankstatement.py -f csv transactions.csv" style="stroke:#181818;stroke-width:1.0;"/><polygon fill="#181818" points="280.55,524.87,289.832,521.577,284.1771,521.4285,284.3256,515.7736,280.55,524.87" style="stroke:#181818;stroke-width:1.0;"/></g><!--MD5=[618094cb06a06b8441efff75167dc824]
link python3 bankstatement.py -f csv transactions.csv to budget-import -i transactions.json--><g id="link_python3 bankstatement.py -f csv transactions.csv_budget-import -i transactions.json"><path d="M262.5,561.02 C262.5,571.59 262.5,585.29 262.5,596.72 " fill="none" id="python3 bankstatement.py -f csv transactions.csv-to-budget-import -i transactions.json" style="stroke:#181818;stroke-width:1.0;"/><polygon fill="#181818" points="262.5,601.79,266.5,592.79,262.5,596.79,258.5,592.79,262.5,601.79" style="stroke:#181818;stroke-width:1.0;"/></g><!--MD5=[1742746ae471e2ee53e121003e8bc976]
link budget-import -i transactions.json to end--><g id="link_budget-import -i transactions.json_end"><path d="M262.5,638.25 C262.5,649.22 262.5,663.24 262.5,673.6 " fill="none" id="budget-import -i transactions.json-to-end" style="stroke:#181818;stroke-width:1.0;"/><polygon fill="#181818" points="262.5,678.65,266.5,669.65,262.5,673.65,258.5,669.65,262.5,678.65" style="stroke:#181818;stroke-width:1.0;"/></g><!--MD5=[c7dae6823e4b3ef61e57ccc32fa9e6df]
@startuml
(*) - -> Log in to Provider Website
If "Statement Origin" then
        - ->[Nicolet] Download transactions (CSV)
        - ->Condition CSV
        - ->python3 bankstatement.py -f csv transactions.csv
Else
        - ->[FECCCU] Download statements (PDF)
        - ->python3 bankstatement.py -f fecccu statement.pdf
        - ->Condition CSV
        - ->python3 bankstatement.py -f csv transactions.csv
Else
        - ->[Discover, Sallie Mae] Manually write CSV table
        - ->python3 bankstatement.py -f csv transactions.csv
Endif
- ->budget-import -i transactions.json
- ->(*)
@enduml

PlantUML version 1.2022.6(Tue Jun 21 12:34:49 CDT 2022)
(GPL source distribution)
Java Runtime: OpenJDK Runtime Environment
JVM: OpenJDK 64-Bit Server VM
Default Encoding: UTF-8
Language: en
Country: US
--></g></svg>